<svg xmlns="http://www.w3.org/2000/svg" width="32" height="32" viewBox="0 0 256 256"><circle cx="128" cy="128" r="96" fill="#ef4444" opacity=".2"/><path fill="#ef4444" d="M128 24a104 104 0 1 0 104 104A104.1 104.1 0 0 0 128 24Zm0 192a88 88 0 1 1 88-88a88.1 88.1 0 0 1-88 88Z"/><path fill="#ef4444" d="M165.7 90.3a8.1 8.1 0 0 0-11.4 0L128 116.7l-26.3-26.4a8.1 8.1 0 0 0-11.4 11.4l26.4 26.3l-26.4 26.3a8.1 8.1 0 0 0 0 11.4a8.2 8.2 0 0 0 11.4 0l26.3-26.4l26.3 26.4a8.2 8.2 0 0 0 11.4 0a8.1 8.1 0 0 0 0-11.4L139.3 128l26.4-26.3a8.1 8.1 0 0 0 0-11.4Z"/></svg>